<?xml version="1.0" standalone="no"?>
<!DOCTYPE svg PUBLIC "-//W3C//DTD SVG 20010904//EN"
 "http://www.w3.org/TR/2001/REC-SVG-20010904/DTD/svg10.dtd">
<svg version="1.0" xmlns="http://www.w3.org/2000/svg"
 width="856.000000pt" height="343.000000pt" viewBox="0 0 856.000000 343.000000"
 preserveAspectRatio="xMidYMid meet">

<g transform="translate(0.000000,343.000000) scale(0.100000,-0.100000)"
fill="#000000" stroke="none">
<path d="M0 1715 l0 -1715 4280 0 4280 0 0 1715 0 1715 -4280 0 -4280 0 0
-1715z m2612 371 c4 -6 8 -175 8 -375 0 -325 -2 -366 -17 -383 -20 -22 -27
-22 -47 -2 -14 13 -16 62 -16 381 0 321 2 369 16 384 16 18 42 15 56 -5z
m3723 -40 c25 -17 34 -46 14 -46 -6 0 -22 9 -36 20 -54 42 -157 14 -183 -51
-18 -42 -14 -99 8 -129 11 -14 48 -39 84 -57 49 -24 68 -39 78 -63 38 -91 -58
-176 -146 -130 -24 14 -54 57 -54 80 0 17 30 11 37 -7 20 -58 86 -72 122 -27
41 52 20 88 -73 132 -81 38 -101 67 -101 143 0 61 17 95 67 132 50 37 128 39
183 3z m-4347 12 c9 -9 12 -99 12 -344 0 -183 -3 -339 -6 -348 -7 -19 -45 -21
-62 -4 -16 16 -17 660 -2 689 12 21 40 25 58 7z m1888 -225 c57 -125 104 -231
104 -235 0 -4 -6 -8 -13 -8 -8 0 -53 87 -107 206 -51 113 -96 202 -100 197 -8
-9 -130 -279 -130 -288 0 -3 21 -5 46 -5 40 0 45 2 39 18 -28 66 -28 65 10
145 20 44 38 77 41 75 7 -8 154 -331 154 -340 0 -4 -33 -8 -73 -8 l-74 0 -18
40 -18 40 -64 0 -63 0 -16 -40 c-11 -27 -22 -40 -35 -40 -16 0 -18 4 -10 18 5
9 53 114 106 232 109 241 105 233 112 226 3 -3 52 -108 109 -233z m346 227
c43 -17 63 -39 50 -52 -9 -9 -16 -7 -32 7 -11 10 -40 20 -67 22 -60 5 -108
-22 -129 -72 -32 -78 -10 -132 73 -170 102 -48 130 -92 98 -158 -36 -77 -142
-81 -180 -7 -19 37 -19 50 0 50 8 0 15 -7 15 -15 0 -26 38 -55 73 -55 36 0 60
19 71 57 11 36 -11 62 -82 96 -80 39 -104 69 -110 139 -4 61 19 106 77 145 36
25 101 31 143 13z m1646 -17 c18 -48 91 -212 148 -331 30 -63 54 -116 54 -118
0 -2 -8 -4 -17 -4 -14 0 -41 50 -107 198 -49 108 -91 200 -95 204 -3 4 -36
-59 -72 -140 l-67 -147 40 -3 c22 -2 42 -1 45 1 2 3 -3 21 -11 42 -15 36 -15
38 21 116 20 44 40 76 44 72 4 -4 40 -80 79 -168 40 -88 74 -163 77 -167 2 -5
-32 -8 -76 -8 l-80 0 -12 35 -13 35 -69 0 -68 0 -15 -35 c-9 -23 -21 -35 -33
-35 -17 0 -5 32 81 218 55 119 104 227 109 240 11 30 25 28 37 -5z m-2348 2
c0 -13 -24 -15 -155 -15 l-155 0 0 -205 0 -205 155 0 c131 0 155 -2 155 -15 0
-13 -26 -15 -170 -15 l-170 0 0 235 0 235 170 0 c144 0 170 -2 170 -15z m1034
-107 l106 -123 0 -117 c0 -98 -3 -118 -15 -118 -12 0 -15 19 -15 111 l0 111
-87 100 c-49 54 -99 112 -112 129 -22 28 -23 29 -4 29 13 0 57 -43 127 -122z
m180 42 c37 -44 71 -80 75 -79 3 0 37 36 74 80 44 50 76 79 89 79 24 0 25 0
-74 -111 l-68 -77 0 -146 0 -146 -70 0 -70 0 0 119 0 118 -86 99 c-48 54 -96
109 -107 122 l-20 22 94 0 94 0 69 -80z m956 65 c0 -13 -32 -15 -225 -15 -193
0 -225 2 -225 15 0 13 32 15 225 15 193 0 225 -2 225 -15z m870 -220 c0 -202
-2 -235 -15 -235 -13 0 -15 33 -15 235 0 202 2 235 15 235 13 0 15 -33 15
-235z m161 173 l0 -63 32 39 c18 22 41 50 52 64 12 14 29 23 40 21 15 -3 8
-16 -43 -74 -34 -38 -62 -73 -62 -77 0 -5 11 -8 25 -8 14 0 39 -13 57 -29 l33
-29 3 -126 c3 -110 2 -126 -12 -126 -14 0 -16 15 -16 99 0 138 -19 180 -82
181 l-28 0 0 -140 0 -140 -70 0 -70 0 0 235 0 235 70 0 70 0 1 -62z m-2526 16
c14 -6 14 -8 -1 -25 -27 -30 -5 -61 77 -110 91 -55 113 -84 113 -148 0 -78
-44 -128 -125 -138 l-41 -6 16 31 c22 43 20 104 -3 134 -11 14 -46 37 -79 51
-72 33 -94 55 -95 101 -1 46 19 81 57 100 34 17 55 19 81 10z m2079 0 c14 -5
14 -8 -1 -30 -15 -23 -14 -26 8 -50 13 -14 47 -39 76 -55 92 -53 128 -119 104
-192 -16 -47 -52 -78 -108 -92 -26 -7 -49 -12 -51 -10 -1 1 4 15 13 31 21 41
19 106 -5 136 -10 14 -48 39 -84 56 -70 34 -86 53 -86 105 0 68 74 124 134
101z m-2904 -49 l0 -45 50 0 c38 0 50 -4 50 -15 0 -11 -12 -15 -50 -15 l-50 0
0 -125 0 -125 -70 0 -70 0 0 178 c0 98 3 182 7 185 3 4 35 7 70 7 l63 0 0 -45z
m2030 -165 c0 -203 -1 -210 -20 -210 -19 0 -20 7 -20 203 0 112 3 207 7 210 3
4 12 7 20 7 10 0 13 -42 13 -210z m160 0 l0 -210 -70 0 -70 0 0 210 0 210 70
0 70 0 0 -210z m-2751 186 c8 -9 11 -92 9 -281 -3 -237 -5 -269 -20 -278 -12
-8 -21 -7 -32 2 -14 12 -16 49 -16 280 0 268 3 291 36 291 6 0 17 -6 23 -14z
m-615 -22 c14 -13 16 -50 16 -250 0 -143 -4 -243 -10 -255 -12 -21 -40 -25
-58 -7 -17 17 -17 499 0 516 16 16 33 15 52 -4z m-410 -20 c14 -13 16 -47 16
-222 0 -114 -3 -217 -6 -229 -7 -27 -40 -39 -59 -23 -12 10 -15 53 -15 239 0
228 3 251 36 251 7 0 20 -7 28 -16z m614 -56 c8 -8 12 -62 12 -178 0 -171 -4
-190 -42 -190 -9 0 -21 7 -26 16 -11 21 -2 336 10 352 13 15 31 15 46 0z
m2614 -468 c-2 -33 -8 -60 -13 -60 -10 0 -13 103 -2 113 15 15 18 4 15 -53z
m-1778 34 c23 -9 20 -26 -4 -19 -11 4 -20 2 -20 -4 0 -6 6 -11 14 -11 7 0 19
-7 26 -16 19 -22 -9 -49 -44 -40 -24 6 -38 36 -16 36 6 0 10 -4 10 -10 0 -5 7
-10 15 -10 8 0 15 5 15 10 0 6 -6 10 -14 10 -7 0 -19 7 -26 15 -10 12 -10 18
0 30 14 17 21 18 44 9z m76 -44 c0 -27 -4 -50 -10 -50 -11 0 -14 83 -3 93 12
12 13 8 13 -43z m83 20 l13 -29 11 29 c17 46 33 36 33 -21 0 -31 -4 -48 -10
-44 -5 3 -10 14 -11 23 0 11 -4 8 -10 -8 -10 -23 -11 -24 -24 -7 -11 16 -13
16 -19 2 -10 -27 -26 -6 -26 34 0 59 23 70 43 21z m158 20 c26 -14 24 -37 -3
-51 -13 -7 -27 -18 -31 -26 -13 -22 -27 -4 -27 36 0 52 17 64 61 41z m79 -36
c0 -27 4 -34 20 -34 11 0 20 -5 20 -11 0 -6 -14 -9 -32 -7 -29 3 -33 7 -36 36
-2 19 -1 41 2 49 10 24 26 4 26 -33z m98 -10 c-2 -22 -7 -39 -13 -39 -12 0
-19 60 -10 83 10 28 27 -3 23 -44z m102 46 c0 -5 -9 -10 -20 -10 -11 0 -20 -4
-20 -10 0 -5 9 -10 20 -10 11 0 20 -4 20 -10 0 -5 -9 -10 -20 -10 -13 0 -20
-7 -20 -20 0 -11 -4 -20 -10 -20 -5 0 -10 23 -10 50 0 49 1 50 30 50 17 0 30
-4 30 -10z m170 -5 c15 -18 5 -34 -11 -18 -16 16 -39 5 -39 -18 0 -24 29 -37
40 -18 5 7 12 10 16 6 10 -10 -16 -37 -35 -37 -39 0 -55 54 -25 84 20 20 38
20 54 1z m114 -32 c9 -25 13 -49 10 -52 -4 -3 -9 0 -11 7 -6 15 -35 16 -51 0
-9 -9 -12 -8 -12 5 0 26 27 87 39 87 5 0 16 -21 25 -47z m86 20 c12 -25 14
-26 18 -8 9 45 22 37 22 -13 0 -55 -12 -66 -31 -30 l-12 22 -8 -23 c-12 -32
-29 -16 -29 28 0 58 18 68 40 24z m150 7 c24 -24 24 -29 4 -58 -11 -16 -24
-22 -42 -20 -22 2 -28 9 -30 36 -2 19 -1 40 2 48 8 20 43 17 66 -6z m124 4 c9
-8 16 -24 16 -34 0 -39 -52 -64 -78 -38 -26 26 -3 88 33 88 7 0 21 -7 29 -16z
m181 6 c3 -5 -1 -10 -9 -10 -12 0 -16 -10 -16 -40 0 -22 -4 -40 -10 -40 -5 0
-10 16 -10 35 0 22 -6 38 -15 41 -8 4 -12 10 -9 15 7 12 61 11 69 -1z m75 -65
c10 0 15 10 15 34 0 19 6 36 13 39 21 7 11 -78 -10 -92 -37 -23 -73 35 -52 82
6 12 9 6 13 -23 4 -26 11 -40 21 -40z m208 63 c7 -7 12 -24 12 -38 0 -34 -17
-50 -52 -50 -27 0 -28 2 -28 50 0 48 1 50 28 50 15 0 33 -5 40 -12z m181 -36
c8 -23 11 -45 7 -49 -5 -4 -11 -2 -13 5 -5 14 -43 16 -43 2 0 -5 -4 -10 -10
-10 -14 0 -12 25 5 66 18 44 34 40 54 -14z m236 38 c3 -6 -1 -13 -9 -16 -10
-4 -16 -19 -16 -40 0 -19 -4 -34 -10 -34 -5 0 -10 16 -10 35 0 24 -5 35 -15
35 -8 0 -15 7 -15 15 0 17 65 22 75 5z m94 -49 c13 -40 8 -49 -15 -31 -13 11
-19 11 -36 1 -11 -7 -22 -10 -25 -7 -6 6 15 64 30 84 13 17 30 0 46 -47z m108
47 c14 -18 15 -88 2 -88 -6 0 -13 9 -16 20 -3 11 -10 20 -15 20 -5 0 -12 -9
-15 -20 -10 -37 -23 -20 -23 30 0 48 1 50 29 50 16 0 33 -6 38 -12z m116 -3
c-1 -5 -12 -13 -25 -17 l-23 -6 23 -1 c27 -1 30 -21 2 -21 -11 0 -20 -4 -20
-10 0 -5 11 -10 25 -10 14 0 25 -4 25 -10 0 -5 -16 -10 -35 -10 l-35 0 0 51 0
50 33 -3 c17 -2 31 -7 30 -13z m107 -33 c8 -23 10 -45 6 -49 -5 -4 -11 -2 -13
5 -5 14 -43 16 -43 2 0 -5 -5 -10 -11 -10 -7 0 -9 10 -5 25 22 86 42 94 66 27z
m164 42 c26 -10 20 -53 -9 -60 -14 -3 -25 -12 -25 -20 0 -8 -4 -14 -10 -14 -5
0 -10 23 -10 50 0 52 11 61 54 44z m132 -15 c17 -19 17 -23 3 -47 -18 -33 -44
-39 -70 -16 -23 21 -24 33 -3 62 19 28 45 28 70 1z m111 9 c13 -16 15 -88 3
-88 -5 0 -12 9 -15 20 -3 11 -10 20 -15 20 -4 0 -10 -9 -13 -20 -10 -39 -27
-20 -27 30 0 48 1 50 29 50 16 0 33 -6 38 -12z m183 2 c0 -6 -7 -13 -15 -16
-9 -4 -15 -19 -15 -40 0 -19 -4 -34 -10 -34 -5 0 -10 15 -10 34 0 21 -6 36
-15 40 -29 11 -15 26 25 26 22 0 40 -5 40 -10z m86 -35 c19 -52 15 -62 -16
-43 -18 10 -24 10 -27 1 -4 -12 -33 -19 -33 -9 0 15 41 96 49 96 5 0 17 -20
27 -45z m110 37 c7 -4 12 -26 12 -49 1 -45 -12 -58 -21 -23 -3 11 -10 20 -16
20 -6 0 -11 -9 -11 -20 0 -11 -7 -20 -15 -20 -11 0 -15 11 -15 43 0 24 3 47 7
50 9 9 45 9 59 -1z m122 -4 c-3 -7 -15 -15 -29 -19 -24 -7 -24 -7 4 -8 34 -1
36 -21 2 -21 -14 0 -25 -4 -25 -10 0 -5 11 -10 25 -10 14 0 25 -4 25 -10 0 -5
-16 -10 -35 -10 l-35 0 0 50 0 50 36 0 c24 0 34 -4 32 -12z m103 -34 c22 -49
19 -65 -7 -44 -13 11 -19 11 -36 1 -11 -7 -22 -10 -25 -7 -8 7 28 96 39 96 5
0 18 -21 29 -46z m-2901 -9 c0 -25 -4 -45 -10 -45 -5 0 -10 20 -10 45 0 25 5
45 10 45 6 0 10 -20 10 -45z m1294 -48 c-9 -25 -22 -21 -19 6 3 32 4 32 15 21
6 -6 8 -18 4 -27z m1676 18 c0 -8 -4 -15 -10 -15 -5 0 -10 7 -10 15 0 8 5 15
10 15 6 0 10 -7 10 -15z"/>
<path d="M3520 1425 c0 -9 6 -12 15 -9 8 4 12 10 9 15 -8 14 -24 10 -24 -6z"/>
<path d="M4080 1410 c0 -5 5 -10 11 -10 5 0 7 5 4 10 -3 6 -8 10 -11 10 -2 0
-4 -4 -4 -10z"/>
<path d="M4310 1410 c0 -21 4 -30 13 -27 6 2 12 14 12 27 0 13 -6 25 -12 28
-9 2 -13 -7 -13 -28z"/>
<path d="M4432 1431 c-18 -11 -11 -45 9 -49 9 -2 19 5 23 14 8 22 -14 46 -32
35z"/>
<path d="M4892 1408 c2 -13 10 -23 18 -23 8 0 16 10 18 23 3 17 -2 22 -18 22
-16 0 -21 -5 -18 -22z"/>
<path d="M5515 1430 c-3 -5 1 -10 9 -10 9 0 16 5 16 10 0 6 -4 10 -9 10 -6 0
-13 -4 -16 -10z"/>
<path d="M5910 1430 c0 -5 7 -10 16 -10 8 0 12 5 9 10 -3 6 -10 10 -16 10 -5
0 -9 -4 -9 -10z"/>
<path d="M6024 1426 c-8 -22 3 -49 19 -43 6 2 12 14 12 27 0 27 -22 39 -31 16z"/>
<path d="M6150 1430 c0 -5 5 -10 10 -10 6 0 10 5 10 10 0 6 -4 10 -10 10 -5 0
-10 -4 -10 -10z"/>
<path d="M6530 1430 c0 -5 7 -10 16 -10 8 0 12 5 9 10 -3 6 -10 10 -16 10 -5
0 -9 -4 -9 -10z"/>
</g>
</svg>
